<svg width="305" height="69" viewBox="0 0 305 69" fill="none" xmlns="http://www.w3.org/2000/svg">
<path d="M0 68.3252V3.17188H18.2764C25.1124 3.17188 30.4764 5.1173 34.3632 9.0029C38.2501 12.8938 40.1935 18.2895 40.1935 25.1955C40.1935 32.1015 38.2501 37.6284 34.3632 41.5769C30.4764 45.5307 25.1176 47.5024 18.2764 47.5024H15.1073V68.32H0V68.3252ZM15.1073 34.7234H16.6945C22.4147 34.7234 25.2748 31.6139 25.2748 25.3896C25.2748 19.1653 22.4147 15.9613 16.6945 15.9613H15.1073V34.7234Z" fill="#250932" style="fill:#250932;fill:color(display-p3 0.1451 0.0353 0.1961);fill-opacity:1;"/>
<path d="M43.3562 36.5906C43.3562 24.0214 49.7575 17.7341 62.5651 17.7341H68.1596V30.3348H63.8694C59.7678 30.3348 57.7144 32.5162 57.7144 36.8685V68.3256H43.3562V36.5906Z" fill="#250932" style="fill:#250932;fill:color(display-p3 0.1451 0.0353 0.1961);fill-opacity:1;"/>
<path d="M93.8019 68.9812C88.6422 68.9812 84.1372 67.9063 80.2818 65.7616C76.4265 63.6169 73.4301 60.5808 71.2824 56.6585C69.14 52.7361 68.0661 48.1951 68.0661 43.03C68.0661 37.8649 69.14 33.3396 71.2824 29.4487C73.4249 25.5579 76.4265 22.527 80.2818 20.3456C84.1372 18.1695 88.6422 17.0788 93.8019 17.0788C98.9616 17.0788 103.451 18.1537 107.275 20.2984C111.099 22.4431 114.079 25.4635 116.227 29.3544C118.37 33.2452 119.443 37.802 119.443 43.03C119.443 48.258 118.37 52.7361 116.227 56.6585C114.085 60.5808 111.099 63.6116 107.275 65.7616C103.451 67.9063 98.9616 68.9812 93.8019 68.9812ZM82.99 43.03C82.99 46.5171 84.001 49.3644 86.023 51.572C88.045 53.7796 90.638 54.8861 93.8071 54.8861C96.9763 54.8861 99.5588 53.7796 101.549 51.572C103.54 49.3644 104.535 46.5171 104.535 43.03C104.535 39.5429 103.54 36.6222 101.549 34.4408C99.5588 32.2646 96.9815 31.1739 93.8071 31.1739C90.6327 31.1739 87.9612 32.2646 85.9759 34.4408C83.9853 36.6222 82.99 39.48 82.99 43.03Z" fill="#250932" style="fill:#250932;fill:color(display-p3 0.1451 0.0353 0.1961);fill-opacity:1;"/>
<path d="M125.975 15.5897C125.975 10.304 127.327 6.38168 130.03 3.82798C132.733 1.27429 136.415 6.10352e-05 141.077 6.10352e-05C142.507 6.10352e-05 143.906 0.110179 145.273 0.325172C146.64 0.545409 147.945 0.839058 149.191 1.21136V14.0008C147.327 13.0674 145.65 12.6007 144.157 12.6007C143.099 12.6007 142.198 12.9154 141.455 13.5341C140.711 14.1581 140.334 15.1859 140.334 16.6122V17.7344H149.097V30.335H140.334V68.3258H125.975V30.335H121.313V17.7344H125.975V15.5897Z" fill="#250932" style="fill:#250932;fill:color(display-p3 0.1451 0.0353 0.1961);fill-opacity:1;"/>
<path d="M151.989 36.5906C151.989 24.0214 158.39 17.7341 171.197 17.7341H176.792V30.3348H172.502C168.4 30.3348 166.347 32.5162 166.347 36.8685V68.3256H151.989V36.5906Z" fill="#250932" style="fill:#250932;fill:color(display-p3 0.1451 0.0353 0.1961);fill-opacity:1;"/>
<path d="M199.075 68.6986C194.722 68.6986 190.872 67.6394 187.514 65.5262C184.156 63.4129 181.532 60.424 179.635 56.5646C177.739 52.7052 176.791 48.1956 176.791 43.0306C176.791 37.8655 177.739 33.3559 179.635 29.4965C181.532 25.6371 184.156 22.6377 187.514 20.4878C190.872 18.3431 194.727 17.2681 199.075 17.2681C201.563 17.2681 203.957 17.6562 206.256 18.4375C208.556 19.2188 210.515 20.4773 212.129 22.2182H212.317V17.7401H225.931V68.3316H212.317V63.8534H212.129C210.51 65.5314 208.551 66.7637 206.256 67.5398C203.957 68.3211 201.563 68.7039 199.075 68.7039V68.6986ZM191.71 42.9362C191.71 46.7326 192.674 49.6901 194.601 51.8033C196.529 53.9218 198.986 54.9758 201.966 54.9758C204.947 54.9758 207.325 53.9165 209.284 51.8033C211.243 49.6901 212.223 46.7326 212.223 42.9362C212.223 39.1397 211.243 36.1088 209.284 34.0218C207.325 31.9401 204.884 30.8966 201.966 30.8966C199.049 30.8966 196.524 31.9558 194.601 34.069C192.674 36.1875 191.71 39.1397 191.71 42.9362Z" fill="#250932" style="fill:#250932;fill:color(display-p3 0.1451 0.0353 0.1961);fill-opacity:1;"/>
<path d="M232.365 68.3263V1.21184H246.723V37.6138H246.911L259.777 17.7296H276.377L260.431 41.9032L276.471 68.3211H259.782L246.917 46.481H246.728V68.3211H232.37L232.365 68.3263Z" fill="#250932" style="fill:#250932;fill:color(display-p3 0.1451 0.0353 0.1961);fill-opacity:1;"/>
<path d="M284.209 68.3263V30.3354H278.426V17.7348H284.209V7.6563H298.567V17.74H305V30.3407H298.567V68.3315H284.209V68.3263Z" fill="#250932" style="fill:#250932;fill:color(display-p3 0.1451 0.0353 0.1961);fill-opacity:1;"/>
</svg>
