<?xml version="1.0" encoding="UTF-8"?>
<svg id="Layer_2" data-name="Layer 2" xmlns="http://www.w3.org/2000/svg" viewBox="0 0 413.3 101.98">
  <defs>
    <style>
      .cls-1 {
        fill: #ffb202;
      }

      .cls-1, .cls-2, .cls-3 {
        stroke-width: 0px;
      }

      .cls-1, .cls-3 {
        fill-rule: evenodd;
      }

      .cls-2, .cls-3 {
        fill: #000;
      }
    </style>
  </defs>
  <g id="Layer_1-2" data-name="Layer 1">
    <path class="cls-2" d="M255.4,31.48v52.8h7.4v-20c0-7.9,5-12.2,10.8-12.2,5.1,0,8.3,3.2,8.3,9.1v23.1h7.4v-25c0-8.8-5.4-13.8-13.5-13.8-6.5,0-10.6,2.9-13,7.2v-21.2h-7.4ZM302.1,28.98c-3.1,0-5.3,2.3-5.3,5.2s2.2,5.1,5.3,5.1,5.3-2.2,5.3-5.1-2.1-5.2-5.3-5.2ZM286.8,99.88c2.8,1.4,5.2,2.1,7.9,2.1,6.3,0,11.2-4.5,11.2-12.3v-43.3h-7.4v43.3c0,3.5-2.1,5.6-5,5.6-1.4,0-2.9-.4-4.4-1.4l-2.3,6ZM349.3,67.58v-3.7c0-11.8-6.3-18.4-16.6-18.4-12,0-18.9,9.2-18.9,20.1s7.1,19.2,18.9,19.2c6.8,0,11.9-2.8,15.8-7.7l-4.2-4.5c-2.4,3.4-6,5.6-11,5.6-6.6,0-11.2-3.5-12.1-10.6h28.1ZM321.2,61.98c.9-6.3,4.8-10.2,11.2-10.2s9.5,3.7,9.5,10.2h-20.7ZM357.2,46.38v37.9h7.4v-20.5c0-8.1,4.3-11.7,9.4-11.7s7.5,3.3,7.5,8.9v23.3h7.4v-20.5c0-8.1,4.3-11.7,9.4-11.7s7.6,3.3,7.6,8.9v23.3h7.4v-24.7c0-9-4.8-14.1-12.8-14.1-6,0-10.3,2.9-12.7,7.9-1.7-5.1-5.8-7.9-11.8-7.9s-9.4,2.8-11.6,7.2v-6.3h-7.2ZM113.2,31.48v52.8h7.4v-20c0-7.9,5-12.2,10.8-12.2,5.1,0,8.3,3.2,8.3,9.1v23.1h7.4v-25c0-8.8-5.4-13.8-13.5-13.8-6.5,0-10.6,2.9-13,7.2v-21.2h-7.4ZM190.5,67.58v-3.7c0-11.8-6.3-18.4-16.6-18.4-12,0-18.9,9.2-18.9,20.1s7.1,19.2,18.9,19.2c6.8,0,11.9-2.8,15.8-7.7l-4.2-4.5c-2.4,3.4-6,5.6-11,5.6-6.6,0-11.2-3.5-12.1-10.6h28.1ZM162.4,61.98c.9-6.3,4.8-10.2,11.2-10.2s9.5,3.7,9.5,10.2h-20.7ZM217.4,82.48l-1.9-5.7c-1.5.8-3,1.2-4.5,1.2-2.9,0-5.3-2.1-5.3-6V31.48h-7.4v41.4c0,7.7,5,11.9,11.1,11.9,2.6,0,5.3-.8,8-2.3ZM217.3,46.38v6.6h7.9v19.4c0,7.9,5.3,12.3,12.2,12.3,3.5,0,7-1.1,10.3-3.3l-2.1-5.4c-2,1.3-4.3,2-6.3,2-3.5,0-6.5-2-6.5-6.6v-18.4h11.5v-6.6h-11.6v-10.1h-7.5v10.1h-7.9Z"/>
    <g>
      <path class="cls-1" d="M42.1,44.43L2.5,28.63c-1.2-.5-2.5.4-2.5,1.7v28.4c0,.7.5,1.4,1.1,1.7l39.6,15.7c1.2.5,2.5-.4,2.5-1.7v-28.3c.1-.7-.4-1.4-1.1-1.7Z"/>
      <path class="cls-1" d="M42.1,79.63l-22.7-9c-1.3-.5-2.5.5-2.5,1.7v17.5c0,.8.5,1.4,1.2,1.7l22.8,8.7c1.2.5,2.5-.4,2.5-1.7v-17.2c-.1-.8-.6-1.4-1.3-1.7Z"/>
      <path class="cls-1" d="M12.9,68.03l-10.4-4.1c-1.2-.5-2.5.4-2.5,1.7v17.5c0,.7.5,1.4,1.1,1.7l10.4,4.1c1.2.5,2.5-.4,2.5-1.7v-17.5c0-.8-.4-1.4-1.1-1.7Z"/>
      <g>
        <path class="cls-3" d="M74.3,30.23l-27.2,14.6c-.6.3-1,.9-1,1.6v52.2c0,1.4,1.5,2.2,2.7,1.6l27.2-14.6c.6-.3,1-.9,1-1.6V31.84c0-1.4-1.5-2.3-2.7-1.6Z"/>
        <path class="cls-3" d="M63.5,14.13L24.4.13c-.8-.3-1.6-.1-2.1.6L3,23.43c-.7.8-.5,2.3.8,2.8l39.6,16c.8.3,1.7,0,2.1-.6l18.8-24.7c.8-1,.3-2.4-.8-2.8Z"/>
      </g>
    </g>
  </g>
</svg>